<svg xmlns="http://www.w3.org/2000/svg" xmlns:xlink="http://www.w3.org/1999/xlink" version="1.1" width="256" height="256" viewBox="0 0 256 256" xml:space="preserve">

<defs>
</defs>
<g style="stroke: none; stroke-width: 0; stroke-dasharray: none; stroke-linecap: butt; stroke-linejoin: miter; stroke-miterlimit: 10; fill: none; fill-rule: nonzero; opacity: 1;" transform="translate(1.4065934065934016 1.4065934065934016) scale(2.81 2.81)" >
	<path d="M 60.785 29.352 c -5.007 -4.483 -11.74 -6.628 -18.473 -5.883 C 31.05 24.712 22.256 33.833 21.402 45.154 c -0.514 6.816 1.919 13.516 6.677 18.379 c 1.76 1.8 2.77 4.386 2.77 7.095 v 14.708 c 0 2.571 2.092 4.664 4.665 4.664 h 18.974 c 2.571 0 4.664 -2.093 4.664 -4.664 V 70.398 c 0 -2.578 0.984 -5.055 2.701 -6.796 c 4.396 -4.457 6.815 -10.358 6.815 -16.616 C 68.668 40.266 65.795 33.838 60.785 29.352 z M 55.151 72.628 v 1.827 h -2.317 c -1.104 0 -2 0.896 -2 2 s 0.896 2 2 2 h 2.317 v 1.827 H 34.849 v -1.827 h 12.683 c 1.104 0 2 -0.896 2 -2 s -0.896 -2 -2 -2 H 34.849 v -1.827 H 55.151 z M 54.487 86 H 35.513 c -0.366 0 -0.665 -0.298 -0.665 -0.664 v -1.054 h 20.303 v 1.054 C 55.151 85.702 54.854 86 54.487 86 z M 59.005 60.794 c -2.08 2.109 -3.364 4.845 -3.732 7.834 H 34.702 c -0.401 -3.021 -1.692 -5.774 -3.763 -7.892 c -3.954 -4.042 -5.976 -9.611 -5.548 -15.281 c 0.698 -9.251 8.162 -16.995 17.362 -18.011 c 0.763 -0.084 1.521 -0.126 2.273 -0.126 c 4.854 0 9.437 1.74 13.091 5.014 c 4.164 3.729 6.552 9.07 6.552 14.655 C 64.668 52.187 62.656 57.09 59.005 60.794 z" style="stroke: none; stroke-width: 1; stroke-dasharray: none; stroke-linecap: butt; stroke-linejoin: miter; stroke-miterlimit: 10; fill: rgb(0,0,0); fill-rule: nonzero; opacity: 1;" transform=" matrix(1 0 0 1 0 0) " stroke-linecap="round" />
	<path d="M 57.487 46.554 c -1.104 0 -2 -0.896 -2 -2 c 0 -2.978 -1.273 -5.826 -3.493 -7.815 c -2.251 -2.015 -5.159 -2.938 -8.197 -2.606 c -1.101 0.122 -2.086 -0.67 -2.208 -1.768 c -0.122 -1.098 0.67 -2.086 1.768 -2.208 c 4.122 -0.454 8.241 0.858 11.304 3.602 c 3.066 2.746 4.825 6.681 4.825 10.794 C 59.487 45.658 58.592 46.554 57.487 46.554 z" style="stroke: none; stroke-width: 1; stroke-dasharray: none; stroke-linecap: butt; stroke-linejoin: miter; stroke-miterlimit: 10; fill: rgb(0,0,0); fill-rule: nonzero; opacity: 1;" transform=" matrix(1 0 0 1 0 0) " stroke-linecap="round" />
	<path d="M 45 20.112 c -1.104 0 -2 -0.896 -2 -2 V 2 c 0 -1.104 0.896 -2 2 -2 s 2 0.896 2 2 v 16.112 C 47 19.217 46.104 20.112 45 20.112 z" style="stroke: none; stroke-width: 1; stroke-dasharray: none; stroke-linecap: butt; stroke-linejoin: miter; stroke-miterlimit: 10; fill: rgb(0,0,0); fill-rule: nonzero; opacity: 1;" transform=" matrix(1 0 0 1 0 0) " stroke-linecap="round" />
	<path d="M 59.306 23.851 c -0.339 0 -0.683 -0.086 -0.998 -0.269 c -0.957 -0.552 -1.284 -1.775 -0.732 -2.732 l 8.009 -13.871 c 0.552 -0.957 1.771 -1.287 2.732 -0.732 c 0.957 0.552 1.284 1.775 0.732 2.732 L 61.04 22.851 C 60.669 23.492 59.997 23.851 59.306 23.851 z" style="stroke: none; stroke-width: 1; stroke-dasharray: none; stroke-linecap: butt; stroke-linejoin: miter; stroke-miterlimit: 10; fill: rgb(0,0,0); fill-rule: nonzero; opacity: 1;" transform=" matrix(1 0 0 1 0 0) " stroke-linecap="round" />
	<path d="M 30.694 23.85 c -0.691 0 -1.363 -0.359 -1.734 -1 l -8.008 -13.87 c -0.552 -0.957 -0.225 -2.18 0.732 -2.732 c 0.956 -0.553 2.179 -0.225 2.732 0.732 l 8.008 13.87 c 0.552 0.957 0.225 2.18 -0.732 2.732 C 31.377 23.764 31.033 23.85 30.694 23.85 z" style="stroke: none; stroke-width: 1; stroke-dasharray: none; stroke-linecap: butt; stroke-linejoin: miter; stroke-miterlimit: 10; fill: rgb(0,0,0); fill-rule: nonzero; opacity: 1;" transform=" matrix(1 0 0 1 0 0) " stroke-linecap="round" />
	<path d="M 70.009 34.195 c -0.691 0 -1.363 -0.359 -1.734 -1 c -0.552 -0.957 -0.225 -2.18 0.732 -2.732 l 13.646 -7.878 c 0.955 -0.555 2.179 -0.225 2.732 0.732 c 0.552 0.957 0.225 2.18 -0.732 2.732 l -13.646 7.878 C 70.692 34.109 70.348 34.195 70.009 34.195 z" style="stroke: none; stroke-width: 1; stroke-dasharray: none; stroke-linecap: butt; stroke-linejoin: miter; stroke-miterlimit: 10; fill: rgb(0,0,0); fill-rule: nonzero; opacity: 1;" transform=" matrix(1 0 0 1 0 0) " stroke-linecap="round" />
	<path d="M 19.769 34.066 c -0.339 0 -0.683 -0.086 -0.998 -0.269 l -13.423 -7.75 c -0.957 -0.552 -1.284 -1.775 -0.732 -2.732 c 0.552 -0.956 1.775 -1.285 2.732 -0.732 l 13.423 7.75 c 0.957 0.552 1.284 1.775 0.732 2.732 C 21.132 33.708 20.46 34.066 19.769 34.066 z" style="stroke: none; stroke-width: 1; stroke-dasharray: none; stroke-linecap: butt; stroke-linejoin: miter; stroke-miterlimit: 10; fill: rgb(0,0,0); fill-rule: nonzero; opacity: 1;" transform=" matrix(1 0 0 1 0 0) " stroke-linecap="round" />
</g>
</svg>